<svg xmlns="http://www.w3.org/2000/svg" width="1920" height="1080"><path d="M-169,-260L418,-258L613,-262Z" fill="#eae4f1" stroke="#eae4f1" stroke-width="1.51"/><path d="M714,1335L576,1338L857,1344Z" fill="#538185" stroke="#538185" stroke-width="1.51"/><path d="M613,-262L1214,-205L1447,-260Z" fill="#adc8e1" stroke="#adc8e1" stroke-width="1.51"/><path d="M1014,1325L857,1344L1635,1330Z" fill="#29717d" stroke="#29717d" stroke-width="1.51"/><path d="M1954,48L2058,122L2061,-79Z" fill="#779794" stroke="#779794" stroke-width="1.51"/><path d="M1447,-260L1655,-245L2077,-254Z" fill="#8fb3b1" stroke="#8fb3b1" stroke-width="1.51"/><path d="M1655,-245L1790,-182L2077,-254Z" fill="#8baea7" stroke="#8baea7" stroke-width="1.51"/><path d="M2061,-79L2058,122L2077,-254Z" fill="#7d9894" stroke="#7d9894" stroke-width="1.51"/><path d="M2077,-254L2058,122L2081,405Z" fill="#72918f" stroke="#72918f" stroke-width="1.51"/><path d="M2058,122L2062,225L2081,405Z" fill="#638a8c" stroke="#638a8c" stroke-width="1.51"/><path d="M2051,580L2080,665L2081,405Z" fill="#387b84" stroke="#387b84" stroke-width="1.51"/><path d="M1990,1092L1960,1310L2104,1126Z" fill="#01604e" stroke="#01604e" stroke-width="1.51"/><path d="M2080,665L1947,724L2112,831Z" fill="#23727f" stroke="#23727f" stroke-width="1.51"/><path d="M2077,-254L2081,405L2112,831Z" fill="#5a8588" stroke="#5a8588" stroke-width="1.51"/><path d="M1959,841L1933,998L2112,831Z" fill="#117070" stroke="#117070" stroke-width="1.51"/><path d="M2081,405L2080,665L2112,831Z" fill="#2f7580" stroke="#2f7580" stroke-width="1.51"/><path d="M2104,1126L1960,1310L2121,1298Z" fill="#015745" stroke="#015745" stroke-width="1.51"/><path d="M2077,-254L2112,831L2130,1026Z" fill="#3a7a82" stroke="#3a7a82" stroke-width="1.51"/><path d="M1990,1092L2104,1126L2130,1026Z" fill="#036255" stroke="#036255" stroke-width="1.51"/><path d="M2112,831L1933,998L2130,1026Z" fill="#046a65" stroke="#046a65" stroke-width="1.51"/><path d="M1933,998L1990,1092L2130,1026Z" fill="#04685d" stroke="#04685d" stroke-width="1.51"/><path d="M2104,1126L2121,1298L2130,1026Z" fill="#015c4b" stroke="#015c4b" stroke-width="1.51"/><path d="M1790,-182L1906,-161L2077,-254Z" fill="#87a89f" stroke="#87a89f" stroke-width="1.51"/><path d="M1964,-92L2061,-79L2077,-254Z" fill="#819d97" stroke="#819d97" stroke-width="1.51"/><path d="M1947,724L1959,841L2112,831Z" fill="#1d727b" stroke="#1d727b" stroke-width="1.51"/><path d="M2062,225L1908,346L2081,405Z" fill="#5d8a8d" stroke="#5d8a8d" stroke-width="1.51"/><path d="M1906,-161L1964,-92L2077,-254Z" fill="#83a29b" stroke="#83a29b" stroke-width="1.51"/><path d="M1908,558L2051,580L2081,405Z" fill="#408189" stroke="#408189" stroke-width="1.51"/><path d="M1135,1284L1014,1325L1635,1330Z" fill="#216f7d" stroke="#216f7d" stroke-width="1.51"/><path d="M1798,1270L1635,1330L1960,1310Z" fill="#026051" stroke="#026051" stroke-width="1.51"/><path d="M1964,-92L1954,48L2061,-79Z" fill="#7d9c97" stroke="#7d9c97" stroke-width="1.51"/><path d="M1910,263L1908,346L2062,225Z" fill="#649092" stroke="#649092" stroke-width="1.51"/><path d="M2051,580L1947,724L2080,665Z" fill="#2e7883" stroke="#2e7883" stroke-width="1.51"/><path d="M1908,346L1908,558L2081,405Z" fill="#4e888e" stroke="#4e888e" stroke-width="1.51"/><path d="M1908,558L1947,724L2051,580Z" fill="#337e88" stroke="#337e88" stroke-width="1.51"/><path d="M1954,48L1910,263L2058,122Z" fill="#719594" stroke="#719594" stroke-width="1.51"/><path d="M2058,122L1910,263L2062,225Z" fill="#6a9091" stroke="#6a9091" stroke-width="1.51"/><path d="M1490,1279L1135,1284L1635,1330Z" fill="#156c70" stroke="#156c70" stroke-width="1.51"/><path d="M1908,346L1799,435L1908,558Z" fill="#4f8e94" stroke="#4f8e94" stroke-width="1.51"/><path d="M1908,558L1823,668L1947,724Z" fill="#31828c" stroke="#31828c" stroke-width="1.51"/><path d="M1770,121L1910,263L1954,48Z" fill="#749c9b" stroke="#749c9b" stroke-width="1.51"/><path d="M1819,1143L1798,1270L1960,1310Z" fill="#016452" stroke="#016452" stroke-width="1.51"/><path d="M1933,998L1818,1044L1990,1092Z" fill="#046e63" stroke="#046e63" stroke-width="1.51"/><path d="M1818,1044L1819,1143L1990,1092Z" fill="#036e5f" stroke="#036e5f" stroke-width="1.51"/><path d="M1819,1143L1960,1310L1990,1092Z" fill="#016653" stroke="#016653" stroke-width="1.51"/><path d="M1947,724L1837,825L1959,841Z" fill="#1f7881" stroke="#1f7881" stroke-width="1.51"/><path d="M1837,825L1933,998L1959,841Z" fill="#127676" stroke="#127676" stroke-width="1.51"/><path d="M1779,-100L1954,48L1964,-92Z" fill="#81a29e" stroke="#81a29e" stroke-width="1.51"/><path d="M1906,-161L1779,-100L1964,-92Z" fill="#85a7a0" stroke="#85a7a0" stroke-width="1.51"/><path d="M1779,-100L1770,121L1954,48Z" fill="#7ea4a1" stroke="#7ea4a1" stroke-width="1.51"/><path d="M1837,825L1818,1044L1933,998Z" fill="#057671" stroke="#057671" stroke-width="1.51"/><path d="M1823,668L1837,825L1947,724Z" fill="#257e8b" stroke="#257e8b" stroke-width="1.51"/><path d="M1790,-182L1779,-100L1906,-161Z" fill="#88aba6" stroke="#88aba6" stroke-width="1.51"/><path d="M1774,531L1823,668L1908,558Z" fill="#3a8893" stroke="#3a8893" stroke-width="1.51"/><path d="M1799,435L1774,531L1908,558Z" fill="#448d96" stroke="#448d96" stroke-width="1.51"/><path d="M1745,275L1908,346L1910,263Z" fill="#659699" stroke="#659699" stroke-width="1.51"/><path d="M1770,121L1745,275L1910,263Z" fill="#6e9c9f" stroke="#6e9c9f" stroke-width="1.51"/><path d="M1745,275L1799,435L1908,346Z" fill="#5f959b" stroke="#5f959b" stroke-width="1.51"/><path d="M613,-262L683,-232L1214,-205Z" fill="#c0d1e6" stroke="#c0d1e6" stroke-width="1.51"/><path d="M1650,-54L1770,121L1779,-100Z" fill="#83a8ab" stroke="#83a8ab" stroke-width="1.51"/><path d="M1641,791L1579,1044L1818,1044Z" fill="#047c7f" stroke="#047c7f" stroke-width="1.51"/><path d="M1823,668L1641,791L1837,825Z" fill="#238191" stroke="#238191" stroke-width="1.51"/><path d="M1641,791L1818,1044L1837,825Z" fill="#137c81" stroke="#137c81" stroke-width="1.51"/><path d="M1579,1044L1651,1109L1818,1044Z" fill="#057672" stroke="#057672" stroke-width="1.51"/><path d="M1818,1044L1651,1109L1819,1143Z" fill="#047268" stroke="#047268" stroke-width="1.51"/><path d="M1651,1109L1798,1270L1819,1143Z" fill="#036e60" stroke="#036e60" stroke-width="1.51"/><path d="M1774,531L1603,736L1823,668Z" fill="#338899" stroke="#338899" stroke-width="1.51"/><path d="M1603,736L1641,791L1823,668Z" fill="#27859a" stroke="#27859a" stroke-width="1.51"/><path d="M1671,236L1745,275L1770,121Z" fill="#719fa6" stroke="#719fa6" stroke-width="1.51"/><path d="M1601,526L1603,736L1774,531Z" fill="#398ea1" stroke="#398ea1" stroke-width="1.51"/><path d="M1650,-54L1601,65L1770,121Z" fill="#81a8af" stroke="#81a8af" stroke-width="1.51"/><path d="M1651,1109L1635,1330L1798,1270Z" fill="#046a60" stroke="#046a60" stroke-width="1.51"/><path d="M1611,408L1774,531L1799,435Z" fill="#4f93a0" stroke="#4f93a0" stroke-width="1.51"/><path d="M1745,275L1611,408L1799,435Z" fill="#5d97a3" stroke="#5d97a3" stroke-width="1.51"/><path d="M1611,408L1601,526L1774,531Z" fill="#4a94a4" stroke="#4a94a4" stroke-width="1.51"/><path d="M1655,-245L1650,-54L1779,-100Z" fill="#8bafb1" stroke="#8bafb1" stroke-width="1.51"/><path d="M1655,-245L1779,-100L1790,-182Z" fill="#8cafae" stroke="#8cafae" stroke-width="1.51"/><path d="M1328,1246L1135,1284L1490,1279Z" fill="#1e727c" stroke="#1e727c" stroke-width="1.51"/><path d="M1601,65L1671,236L1770,121Z" fill="#79a4ac" stroke="#79a4ac" stroke-width="1.51"/><path d="M1671,236L1611,408L1745,275Z" fill="#689ca8" stroke="#689ca8" stroke-width="1.51"/><path d="M1601,526L1510,659L1603,736Z" fill="#348fa7" stroke="#348fa7" stroke-width="1.51"/><path d="M1483,986L1579,1044L1641,791Z" fill="#05818b" stroke="#05818b" stroke-width="1.51"/><path d="M1473,849L1483,986L1641,791Z" fill="#168596" stroke="#168596" stroke-width="1.51"/><path d="M1490,1279L1635,1330L1651,1109Z" fill="#046e67" stroke="#046e67" stroke-width="1.51"/><path d="M1508,-116L1650,-54L1655,-245Z" fill="#8eb2b9" stroke="#8eb2b9" stroke-width="1.51"/><path d="M1523,394L1611,408L1671,236Z" fill="#649dad" stroke="#649dad" stroke-width="1.51"/><path d="M1528,187L1523,394L1671,236Z" fill="#6ea1b2" stroke="#6ea1b2" stroke-width="1.51"/><path d="M1601,65L1528,187L1671,236Z" fill="#79a6b2" stroke="#79a6b2" stroke-width="1.51"/><path d="M1579,1044L1440,1091L1651,1109Z" fill="#057a7b" stroke="#057a7b" stroke-width="1.51"/><path d="M1440,1091L1490,1279L1651,1109Z" fill="#0a7774" stroke="#0a7774" stroke-width="1.51"/><path d="M1447,-260L1508,-116L1655,-245Z" fill="#93b8c1" stroke="#93b8c1" stroke-width="1.51"/><path d="M1508,-116L1601,65L1650,-54Z" fill="#88aeb9" stroke="#88aeb9" stroke-width="1.51"/><path d="M1603,736L1473,849L1641,791Z" fill="#1f879e" stroke="#1f879e" stroke-width="1.51"/><path d="M1441,536L1510,659L1601,526Z" fill="#3f94af" stroke="#3f94af" stroke-width="1.51"/><path d="M1508,-116L1448,85L1601,65Z" fill="#88afbd" stroke="#88afbd" stroke-width="1.51"/><path d="M1523,394L1601,526L1611,408Z" fill="#5499ad" stroke="#5499ad" stroke-width="1.51"/><path d="M1523,394L1441,536L1601,526Z" fill="#4e98b1" stroke="#4e98b1" stroke-width="1.51"/><path d="M1448,85L1528,187L1601,65Z" fill="#80aabb" stroke="#80aabb" stroke-width="1.51"/><path d="M1510,659L1473,849L1603,736Z" fill="#268aa8" stroke="#268aa8" stroke-width="1.51"/><path d="M683,-232L1045,-162L1214,-205Z" fill="#b2cae2" stroke="#b2cae2" stroke-width="1.51"/><path d="M1483,986L1440,1091L1579,1044Z" fill="#0e7e84" stroke="#0e7e84" stroke-width="1.51"/><path d="M1440,1091L1328,1246L1490,1279Z" fill="#177579" stroke="#177579" stroke-width="1.51"/><path d="M1447,-260L1364,-209L1508,-116Z" fill="#98baca" stroke="#98baca" stroke-width="1.51"/><path d="M1330,-33L1448,85L1508,-116Z" fill="#8fb2c6" stroke="#8fb2c6" stroke-width="1.51"/><path d="M1371,728L1473,849L1510,659Z" fill="#2b8cae" stroke="#2b8cae" stroke-width="1.51"/><path d="M1448,85L1293,287L1528,187Z" fill="#7ea9c2" stroke="#7ea9c2" stroke-width="1.51"/><path d="M1315,338L1523,394L1528,187Z" fill="#6fa3bc" stroke="#6fa3bc" stroke-width="1.51"/><path d="M1293,287L1315,338L1528,187Z" fill="#77a6c4" stroke="#77a6c4" stroke-width="1.51"/><path d="M1315,338L1441,536L1523,394Z" fill="#5f9ebc" stroke="#5f9ebc" stroke-width="1.51"/><path d="M1214,-205L1364,-209L1447,-260Z" fill="#9ebdd4" stroke="#9ebdd4" stroke-width="1.51"/><path d="M1441,536L1362,560L1510,659Z" fill="#4295b6" stroke="#4295b6" stroke-width="1.51"/><path d="M1362,560L1371,728L1510,659Z" fill="#3b92b5" stroke="#3b92b5" stroke-width="1.51"/><path d="M1364,-209L1330,-33L1508,-116Z" fill="#97b7cb" stroke="#97b7cb" stroke-width="1.51"/><path d="M683,-232L845,-168L1045,-162Z" fill="#bccee5" stroke="#bccee5" stroke-width="1.51"/><path d="M1473,849L1313,891L1483,986Z" fill="#1c869b" stroke="#1c869b" stroke-width="1.51"/><path d="M1315,338L1362,560L1441,536Z" fill="#589cbf" stroke="#589cbf" stroke-width="1.51"/><path d="M1319,1028L1440,1091L1483,986Z" fill="#18818d" stroke="#18818d" stroke-width="1.51"/><path d="M1313,891L1319,1028L1483,986Z" fill="#1b8599" stroke="#1b8599" stroke-width="1.51"/><path d="M1288,1154L1328,1246L1440,1091Z" fill="#1d7b83" stroke="#1d7b83" stroke-width="1.51"/><path d="M1371,728L1313,891L1473,849Z" fill="#288baa" stroke="#288baa" stroke-width="1.51"/><path d="M1196,145L1293,287L1296,35Z" fill="#8aafd2" stroke="#8aafd2" stroke-width="1.51"/><path d="M1330,-33L1296,35L1448,85Z" fill="#8fb2cc" stroke="#8fb2cc" stroke-width="1.51"/><path d="M1296,35L1293,287L1448,85Z" fill="#87aecb" stroke="#87aecb" stroke-width="1.51"/><path d="M1319,1028L1288,1154L1440,1091Z" fill="#1e7f8c" stroke="#1e7f8c" stroke-width="1.51"/><path d="M1196,145L1220,248L1293,287Z" fill="#83acd1" stroke="#83acd1" stroke-width="1.51"/><path d="M1315,338L1196,407L1362,560Z" fill="#63a0c7" stroke="#63a0c7" stroke-width="1.51"/><path d="M1196,407L1204,562L1362,560Z" fill="#579ec8" stroke="#579ec8" stroke-width="1.51"/><path d="M1214,-205L1330,-33L1364,-209Z" fill="#9dbbd6" stroke="#9dbbd6" stroke-width="1.51"/><path d="M1130,682L1231,841L1371,728Z" fill="#3791c0" stroke="#3791c0" stroke-width="1.51"/><path d="M1362,560L1204,562L1371,728Z" fill="#4596bf" stroke="#4596bf" stroke-width="1.51"/><path d="M1204,562L1130,682L1371,728Z" fill="#4596c4" stroke="#4596c4" stroke-width="1.51"/><path d="M1231,841L1313,891L1371,728Z" fill="#2d8db2" stroke="#2d8db2" stroke-width="1.51"/><path d="M1214,-205L1228,-18L1330,-33Z" fill="#9db9d8" stroke="#9db9d8" stroke-width="1.51"/><path d="M1154,1133L1288,1154L1319,1028Z" fill="#258192" stroke="#258192" stroke-width="1.51"/><path d="M1313,891L1168,983L1319,1028Z" fill="#2388a2" stroke="#2388a2" stroke-width="1.51"/><path d="M1228,-18L1296,35L1330,-33Z" fill="#95b5d3" stroke="#95b5d3" stroke-width="1.51"/><path d="M1288,1154L1135,1284L1328,1246Z" fill="#247885" stroke="#247885" stroke-width="1.51"/><path d="M1231,841L1168,983L1313,891Z" fill="#2b8cab" stroke="#2b8cab" stroke-width="1.51"/><path d="M1168,983L1154,1133L1319,1028Z" fill="#29869a" stroke="#29869a" stroke-width="1.51"/><path d="M1293,287L1196,407L1315,338Z" fill="#73a6cc" stroke="#73a6cc" stroke-width="1.51"/><path d="M1154,1133L1135,1284L1288,1154Z" fill="#2a7e89" stroke="#2a7e89" stroke-width="1.51"/><path d="M1220,248L1196,407L1293,287Z" fill="#79a8cf" stroke="#79a8cf" stroke-width="1.51"/><path d="M1228,-18L1196,145L1296,35Z" fill="#94b4d6" stroke="#94b4d6" stroke-width="1.51"/><path d="M1196,407L1086,507L1204,562Z" fill="#61a3cb" stroke="#61a3cb" stroke-width="1.51"/><path d="M1089,346L1196,407L1220,248Z" fill="#7baad0" stroke="#7baad0" stroke-width="1.51"/><path d="M1023,139L1196,145L1228,-18Z" fill="#97b6d7" stroke="#97b6d7" stroke-width="1.51"/><path d="M997,-17L1023,139L1228,-18Z" fill="#9fbcda" stroke="#9fbcda" stroke-width="1.51"/><path d="M1214,-205L1045,-162L1228,-18Z" fill="#a4bfdc" stroke="#a4bfdc" stroke-width="1.51"/><path d="M1045,-162L997,-17L1228,-18Z" fill="#a5bfdc" stroke="#a5bfdc" stroke-width="1.51"/><path d="M1082,855L1168,983L1231,841Z" fill="#348faf" stroke="#348faf" stroke-width="1.51"/><path d="M1130,682L1082,855L1231,841Z" fill="#3d93bd" stroke="#3d93bd" stroke-width="1.51"/><path d="M1196,145L1019,189L1220,248Z" fill="#8db2d4" stroke="#8db2d4" stroke-width="1.51"/><path d="M1019,189L1089,346L1220,248Z" fill="#87b0d4" stroke="#87b0d4" stroke-width="1.51"/><path d="M1067,1085L1154,1133L1168,983Z" fill="#32889a" stroke="#32889a" stroke-width="1.51"/><path d="M1079,997L1067,1085L1168,983Z" fill="#348ca0" stroke="#348ca0" stroke-width="1.51"/><path d="M1086,507L1130,682L1204,562Z" fill="#559fc9" stroke="#559fc9" stroke-width="1.51"/><path d="M1023,139L1019,189L1196,145Z" fill="#95b6d7" stroke="#95b6d7" stroke-width="1.51"/><path d="M1089,346L1086,507L1196,407Z" fill="#70a8cf" stroke="#70a8cf" stroke-width="1.51"/><path d="M1067,1085L1135,1284L1154,1133Z" fill="#31838d" stroke="#31838d" stroke-width="1.51"/><path d="M1082,855L1079,997L1168,983Z" fill="#358faa" stroke="#358faa" stroke-width="1.51"/><path d="M1086,507L985,706L1130,682Z" fill="#559fc9" stroke="#559fc9" stroke-width="1.51"/><path d="M985,706L1082,855L1130,682Z" fill="#4898c5" stroke="#4898c5" stroke-width="1.51"/><path d="M1067,1085L1014,1325L1135,1284Z" fill="#337f88" stroke="#337f88" stroke-width="1.51"/><path d="M896,1189L1014,1325L1067,1085Z" fill="#3a858d" stroke="#3a858d" stroke-width="1.51"/><path d="M933,636L985,706L1086,507Z" fill="#5ca3cb" stroke="#5ca3cb" stroke-width="1.51"/><path d="M865,982L1079,997L1082,855Z" fill="#3e94ac" stroke="#3e94ac" stroke-width="1.51"/><path d="M904,556L933,636L1086,507Z" fill="#64a7ce" stroke="#64a7ce" stroke-width="1.51"/><path d="M856,414L904,556L1086,507Z" fill="#71acd0" stroke="#71acd0" stroke-width="1.51"/><path d="M856,414L1086,507L1089,346Z" fill="#78acd1" stroke="#78acd1" stroke-width="1.51"/><path d="M1019,189L856,414L1089,346Z" fill="#89b3d5" stroke="#89b3d5" stroke-width="1.51"/><path d="M841,835L865,982L1082,855Z" fill="#4a98b5" stroke="#4a98b5" stroke-width="1.51"/><path d="M865,982L1067,1085L1079,997Z" fill="#3d8fa2" stroke="#3d8fa2" stroke-width="1.51"/><path d="M985,706L841,835L1082,855Z" fill="#4c9ac0" stroke="#4c9ac0" stroke-width="1.51"/><path d="M846,190L856,414L1019,189Z" fill="#95b8d8" stroke="#95b8d8" stroke-width="1.51"/><path d="M865,982L896,1189L1067,1085Z" fill="#418e9c" stroke="#418e9c" stroke-width="1.51"/><path d="M997,-17L841,69L1023,139Z" fill="#a4bfdc" stroke="#a4bfdc" stroke-width="1.51"/><path d="M887,-62L997,-17L1045,-162Z" fill="#adc5df" stroke="#adc5df" stroke-width="1.51"/><path d="M845,-168L887,-62L1045,-162Z" fill="#b3c9e2" stroke="#b3c9e2" stroke-width="1.51"/><path d="M896,1189L857,1344L1014,1325Z" fill="#3f7f87" stroke="#3f7f87" stroke-width="1.51"/><path d="M846,190L1019,189L1023,139Z" fill="#9abbda" stroke="#9abbda" stroke-width="1.51"/><path d="M841,69L846,190L1023,139Z" fill="#a4bedc" stroke="#a4bedc" stroke-width="1.51"/><path d="M887,-62L841,69L997,-17Z" fill="#adc4df" stroke="#adc4df" stroke-width="1.51"/><path d="M933,636L841,835L985,706Z" fill="#599fc9" stroke="#599fc9" stroke-width="1.51"/><path d="M846,190L751,344L856,414Z" fill="#99b8d9" stroke="#99b8d9" stroke-width="1.51"/><path d="M865,982L739,1099L896,1189Z" fill="#4f929d" stroke="#4f929d" stroke-width="1.51"/><path d="M904,556L695,693L933,636Z" fill="#6ca7cf" stroke="#6ca7cf" stroke-width="1.51"/><path d="M695,693L841,835L933,636Z" fill="#65a2cb" stroke="#65a2cb" stroke-width="1.51"/><path d="M723,270L751,344L846,190Z" fill="#a2bcda" stroke="#a2bcda" stroke-width="1.51"/><path d="M841,835L788,853L865,982Z" fill="#579cb7" stroke="#579cb7" stroke-width="1.51"/><path d="M714,1335L857,1344L896,1189Z" fill="#4a8289" stroke="#4a8289" stroke-width="1.51"/><path d="M709,554L695,693L904,556Z" fill="#77acd1" stroke="#77acd1" stroke-width="1.51"/><path d="M856,414L709,554L904,556Z" fill="#7cafd3" stroke="#7cafd3" stroke-width="1.51"/><path d="M788,853L763,969L865,982Z" fill="#579ab1" stroke="#579ab1" stroke-width="1.51"/><path d="M733,-17L841,69L887,-62Z" fill="#b6c7e1" stroke="#b6c7e1" stroke-width="1.51"/><path d="M739,1099L714,1335L896,1189Z" fill="#528c90" stroke="#528c90" stroke-width="1.51"/><path d="M841,69L762,117L846,190Z" fill="#adc2de" stroke="#adc2de" stroke-width="1.51"/><path d="M763,969L739,1099L865,982Z" fill="#5797a7" stroke="#5797a7" stroke-width="1.51"/><path d="M845,-168L733,-17L887,-62Z" fill="#bbcae3" stroke="#bbcae3" stroke-width="1.51"/><path d="M695,693L788,853L841,835Z" fill="#65a1c4" stroke="#65a1c4" stroke-width="1.51"/><path d="M751,344L709,554L856,414Z" fill="#8cb4d6" stroke="#8cb4d6" stroke-width="1.51"/><path d="M683,-232L733,-17L845,-168Z" fill="#c4cfe5" stroke="#c4cfe5" stroke-width="1.51"/><path d="M762,117L723,270L846,190Z" fill="#aac0dd" stroke="#aac0dd" stroke-width="1.51"/><path d="M733,-17L762,117L841,69Z" fill="#b5c6e0" stroke="#b5c6e0" stroke-width="1.51"/><path d="M267,1253L34,1317L576,1338Z" fill="#72918f" stroke="#72918f" stroke-width="1.51"/><path d="M555,1131L714,1335L739,1099Z" fill="#5e9195" stroke="#5e9195" stroke-width="1.51"/><path d="M606,384L709,554L751,344Z" fill="#96b8d8" stroke="#96b8d8" stroke-width="1.51"/><path d="M571,824L763,969L788,853Z" fill="#66a0ba" stroke="#66a0ba" stroke-width="1.51"/><path d="M695,693L571,824L788,853Z" fill="#70a4c7" stroke="#70a4c7" stroke-width="1.51"/><path d="M555,1131L576,1338L714,1335Z" fill="#5f8b8e" stroke="#5f8b8e" stroke-width="1.51"/><path d="M683,-232L536,-40L733,-17Z" fill="#cbd1e6" stroke="#cbd1e6" stroke-width="1.51"/><path d="M733,-17L576,130L762,117Z" fill="#bcc8e1" stroke="#bcc8e1" stroke-width="1.51"/><path d="M576,130L723,270L762,117Z" fill="#b4c4df" stroke="#b4c4df" stroke-width="1.51"/><path d="M548,1016L739,1099L763,969Z" fill="#629aa8" stroke="#629aa8" stroke-width="1.51"/><path d="M571,824L548,1016L763,969Z" fill="#6aa1b4" stroke="#6aa1b4" stroke-width="1.51"/><path d="M723,270L606,384L751,344Z" fill="#a3bcdb" stroke="#a3bcdb" stroke-width="1.51"/><path d="M615,569L695,693L709,554Z" fill="#81aed2" stroke="#81aed2" stroke-width="1.51"/><path d="M606,384L615,569L709,554Z" fill="#8fb6d6" stroke="#8fb6d6" stroke-width="1.51"/><path d="M576,130L546,199L723,270Z" fill="#b7c5e0" stroke="#b7c5e0" stroke-width="1.51"/><path d="M536,-40L576,130L733,-17Z" fill="#c5cce4" stroke="#c5cce4" stroke-width="1.51"/><path d="M548,1016L555,1131L739,1099Z" fill="#679aa2" stroke="#679aa2" stroke-width="1.51"/><path d="M613,-262L536,-40L683,-232Z" fill="#d1d6e9" stroke="#d1d6e9" stroke-width="1.51"/><path d="M553,723L571,824L695,693Z" fill="#7aa8cf" stroke="#7aa8cf" stroke-width="1.51"/><path d="M546,199L606,384L723,270Z" fill="#aec0dd" stroke="#aec0dd" stroke-width="1.51"/><path d="M615,569L553,723L695,693Z" fill="#80add1" stroke="#80add1" stroke-width="1.51"/><path d="M-169,-260L126,-171L418,-258Z" fill="#f0e7f3" stroke="#f0e7f3" stroke-width="1.51"/><path d="M470,874L548,1016L571,824Z" fill="#74a5ba" stroke="#74a5ba" stroke-width="1.51"/><path d="M536,-40L473,71L576,130Z" fill="#cacee5" stroke="#cacee5" stroke-width="1.51"/><path d="M555,1131L463,1243L576,1338Z" fill="#669192" stroke="#669192" stroke-width="1.51"/><path d="M546,199L383,348L606,384Z" fill="#b3c3de" stroke="#b3c3de" stroke-width="1.51"/><path d="M474,-56L536,-40L613,-262Z" fill="#d4d5e8" stroke="#d4d5e8" stroke-width="1.51"/><path d="M418,-258L474,-56L613,-262Z" fill="#d9daeb" stroke="#d9daeb" stroke-width="1.51"/><path d="M393,653L553,723L615,569Z" fill="#8ab1d4" stroke="#8ab1d4" stroke-width="1.51"/><path d="M441,494L393,653L615,569Z" fill="#93b7d7" stroke="#93b7d7" stroke-width="1.51"/><path d="M606,384L441,494L615,569Z" fill="#99b9d9" stroke="#99b9d9" stroke-width="1.51"/><path d="M463,1243L267,1253L576,1338Z" fill="#6c9090" stroke="#6c9090" stroke-width="1.51"/><path d="M383,348L441,494L606,384Z" fill="#a9bfdd" stroke="#a9bfdd" stroke-width="1.51"/><path d="M420,191L383,348L546,199Z" fill="#bec8e2" stroke="#bec8e2" stroke-width="1.51"/><path d="M548,1016L439,1099L555,1131Z" fill="#6e9da4" stroke="#6e9da4" stroke-width="1.51"/><path d="M553,723L470,874L571,824Z" fill="#7ba9c8" stroke="#7ba9c8" stroke-width="1.51"/><path d="M473,71L546,199L576,130Z" fill="#c4cbe3" stroke="#c4cbe3" stroke-width="1.51"/><path d="M474,-56L473,71L536,-40Z" fill="#d0d2e7" stroke="#d0d2e7" stroke-width="1.51"/><path d="M473,71L420,191L546,199Z" fill="#c5cbe4" stroke="#c5cbe4" stroke-width="1.51"/><path d="M470,874L394,998L548,1016Z" fill="#75a5b4" stroke="#75a5b4" stroke-width="1.51"/><path d="M393,653L470,874L553,723Z" fill="#84add0" stroke="#84add0" stroke-width="1.51"/><path d="M439,1099L463,1243L555,1131Z" fill="#6d9a9a" stroke="#6d9a9a" stroke-width="1.51"/><path d="M394,998L439,1099L548,1016Z" fill="#73a1aa" stroke="#73a1aa" stroke-width="1.51"/><path d="M244,1185L267,1253L439,1099Z" fill="#779d9b" stroke="#779d9b" stroke-width="1.51"/><path d="M439,1099L267,1253L463,1243Z" fill="#729998" stroke="#729998" stroke-width="1.51"/><path d="M393,653L281,833L470,874Z" fill="#88aecd" stroke="#88aecd" stroke-width="1.51"/><path d="M324,86L420,191L473,71Z" fill="#ced0e5" stroke="#ced0e5" stroke-width="1.51"/><path d="M418,-258L312,-163L474,-56Z" fill="#dfdcec" stroke="#dfdcec" stroke-width="1.51"/><path d="M324,86L473,71L474,-56Z" fill="#d2d3e7" stroke="#d2d3e7" stroke-width="1.51"/><path d="M312,-163L324,86L474,-56Z" fill="#dbd7ea" stroke="#dbd7ea" stroke-width="1.51"/><path d="M312,-163L228,-90L324,86Z" fill="#e0daeb" stroke="#e0daeb" stroke-width="1.51"/><path d="M311,283L383,348L420,191Z" fill="#c0c9e2" stroke="#c0c9e2" stroke-width="1.51"/><path d="M281,833L394,998L470,874Z" fill="#80aabd" stroke="#80aabd" stroke-width="1.51"/><path d="M283,517L393,653L441,494Z" fill="#9dbbda" stroke="#9dbbda" stroke-width="1.51"/><path d="M281,833L279,968L394,998Z" fill="#81aaba" stroke="#81aaba" stroke-width="1.51"/><path d="M126,-171L312,-163L418,-258Z" fill="#e7e1ef" stroke="#e7e1ef" stroke-width="1.51"/><path d="M383,348L282,415L441,494Z" fill="#afc2de" stroke="#afc2de" stroke-width="1.51"/><path d="M282,415L283,517L441,494Z" fill="#a9c0dd" stroke="#a9c0dd" stroke-width="1.51"/><path d="M394,998L244,1185L439,1099Z" fill="#79a2a5" stroke="#79a2a5" stroke-width="1.51"/><path d="M283,517L284,638L393,653Z" fill="#9cbad9" stroke="#9cbad9" stroke-width="1.51"/><path d="M284,638L281,833L393,653Z" fill="#93b4d5" stroke="#93b4d5" stroke-width="1.51"/><path d="M279,968L244,1185L394,998Z" fill="#7da5ab" stroke="#7da5ab" stroke-width="1.51"/><path d="M324,86L311,283L420,191Z" fill="#cbcee5" stroke="#cbcee5" stroke-width="1.51"/><path d="M311,283L282,415L383,348Z" fill="#bbc7e1" stroke="#bbc7e1" stroke-width="1.51"/><path d="M144,1239L34,1317L267,1253Z" fill="#7b9895" stroke="#7b9895" stroke-width="1.51"/><path d="M120,1019L244,1185L279,968Z" fill="#81a7ac" stroke="#81a7ac" stroke-width="1.51"/><path d="M179,664L182,832L281,833Z" fill="#92b3d1" stroke="#92b3d1" stroke-width="1.51"/><path d="M179,664L281,833L284,638Z" fill="#95b5d7" stroke="#95b5d7" stroke-width="1.51"/><path d="M169,367L282,415L311,283Z" fill="#bdc9e2" stroke="#bdc9e2" stroke-width="1.51"/><path d="M228,-90L160,87L324,86Z" fill="#ddd9ea" stroke="#ddd9ea" stroke-width="1.51"/><path d="M166,194L311,283L324,86Z" fill="#cfd0e6" stroke="#cfd0e6" stroke-width="1.51"/><path d="M160,87L166,194L324,86Z" fill="#d7d5e8" stroke="#d7d5e8" stroke-width="1.51"/><path d="M140,-49L160,87L228,-90Z" fill="#e3dced" stroke="#e3dced" stroke-width="1.51"/><path d="M182,832L279,968L281,833Z" fill="#89afc3" stroke="#89afc3" stroke-width="1.51"/><path d="M126,-171L228,-90L312,-163Z" fill="#e8e0ef" stroke="#e8e0ef" stroke-width="1.51"/><path d="M166,194L169,367L311,283Z" fill="#c8cde5" stroke="#c8cde5" stroke-width="1.51"/><path d="M182,832L120,1019L279,968Z" fill="#87aebb" stroke="#87aebb" stroke-width="1.51"/><path d="M169,367L97,485L282,415Z" fill="#b8c7e1" stroke="#b8c7e1" stroke-width="1.51"/><path d="M282,415L97,485L283,517Z" fill="#afc4df" stroke="#afc4df" stroke-width="1.51"/><path d="M97,485L179,664L283,517Z" fill="#a6c1dd" stroke="#a6c1dd" stroke-width="1.51"/><path d="M283,517L179,664L284,638Z" fill="#9ebcda" stroke="#9ebcda" stroke-width="1.51"/><path d="M120,1019L108,1194L244,1185Z" fill="#81a5a3" stroke="#81a5a3" stroke-width="1.51"/><path d="M244,1185L144,1239L267,1253Z" fill="#799b98" stroke="#799b98" stroke-width="1.51"/><path d="M108,1194L144,1239L244,1185Z" fill="#7d9f9b" stroke="#7d9f9b" stroke-width="1.51"/><path d="M126,-171L140,-49L228,-90Z" fill="#e8e0ef" stroke="#e8e0ef" stroke-width="1.51"/><path d="M31,1101L108,1194L120,1019Z" fill="#85a8a8" stroke="#85a8a8" stroke-width="1.51"/><path d="M-169,-260L-67,-158L126,-171Z" fill="#f4ebf5" stroke="#f4ebf5" stroke-width="1.51"/><path d="M166,194L-14,259L169,367Z" fill="#ced1e6" stroke="#ced1e6" stroke-width="1.51"/><path d="M-14,259L14,400L169,367Z" fill="#c8cfe6" stroke="#c8cfe6" stroke-width="1.51"/><path d="M97,485L-43,655L179,664Z" fill="#a7c1dd" stroke="#a7c1dd" stroke-width="1.51"/><path d="M-43,655L-2,873L179,664Z" fill="#9ebad9" stroke="#9ebad9" stroke-width="1.51"/><path d="M179,664L-2,873L182,832Z" fill="#95b5d1" stroke="#95b5d1" stroke-width="1.51"/><path d="M-2,873L120,1019L182,832Z" fill="#8db2c1" stroke="#8db2c1" stroke-width="1.51"/><path d="M140,-49L24,-74L160,87Z" fill="#e6ddee" stroke="#e6ddee" stroke-width="1.51"/><path d="M160,87L-45,128L166,194Z" fill="#dcd8eb" stroke="#dcd8eb" stroke-width="1.51"/><path d="M14,400L97,485L169,367Z" fill="#bdcae3" stroke="#bdcae3" stroke-width="1.51"/><path d="M24,-74L-45,128L160,87Z" fill="#e4dded" stroke="#e4dded" stroke-width="1.51"/><path d="M-45,128L-14,259L166,194Z" fill="#d9d7e9" stroke="#d9d7e9" stroke-width="1.51"/><path d="M126,-171L24,-74L140,-49Z" fill="#ebe2f0" stroke="#ebe2f0" stroke-width="1.51"/><path d="M-58,530L-43,655L97,485Z" fill="#aec6e0" stroke="#aec6e0" stroke-width="1.51"/><path d="M-2,873L-10,1025L120,1019Z" fill="#8cb1ba" stroke="#8cb1ba" stroke-width="1.51"/><path d="M108,1194L34,1317L144,1239Z" fill="#7e9c98" stroke="#7e9c98" stroke-width="1.51"/><path d="M-67,-158L24,-74L126,-171Z" fill="#efe6f2" stroke="#efe6f2" stroke-width="1.51"/><path d="M-10,1025L31,1101L120,1019Z" fill="#89adaf" stroke="#89adaf" stroke-width="1.51"/><path d="M31,1101L34,1317L108,1194Z" fill="#82a19d" stroke="#82a19d" stroke-width="1.51"/><path d="M14,400L-58,530L97,485Z" fill="#b9cae3" stroke="#b9cae3" stroke-width="1.51"/><path d="M-43,655L-118,875L-2,873Z" fill="#9bbad2" stroke="#9bbad2" stroke-width="1.51"/><path d="M-218,-9L-45,128L24,-74Z" fill="#eae3f0" stroke="#eae3f0" stroke-width="1.51"/><path d="M31,1101L-114,1105L34,1317Z" fill="#86a7a1" stroke="#86a7a1" stroke-width="1.51"/><path d="M-114,1105L-200,1245L34,1317Z" fill="#85a59e" stroke="#85a59e" stroke-width="1.51"/><path d="M-118,875L-10,1025L-2,873Z" fill="#92b5c1" stroke="#92b5c1" stroke-width="1.51"/><path d="M-14,259L-155,392L14,400Z" fill="#cbd2e7" stroke="#cbd2e7" stroke-width="1.51"/><path d="M-10,1025L-114,1105L31,1101Z" fill="#8aadad" stroke="#8aadad" stroke-width="1.51"/><path d="M-200,722L-118,875L-43,655Z" fill="#a1bedb" stroke="#a1bedb" stroke-width="1.51"/><path d="M-67,-158L-218,-9L24,-74Z" fill="#f0e7f2" stroke="#f0e7f2" stroke-width="1.51"/><path d="M-155,392L-58,530L14,400Z" fill="#bfcfe5" stroke="#bfcfe5" stroke-width="1.51"/><path d="M-218,-9L-213,82L-45,128Z" fill="#e9e3f0" stroke="#e9e3f0" stroke-width="1.51"/><path d="M-45,128L-197,199L-14,259Z" fill="#dcdbeb" stroke="#dcdbeb" stroke-width="1.51"/><path d="M-118,875L-216,997L-10,1025Z" fill="#91b6bd" stroke="#91b6bd" stroke-width="1.51"/><path d="M-216,997L-114,1105L-10,1025Z" fill="#8eb2b3" stroke="#8eb2b3" stroke-width="1.51"/><path d="M-197,199L-155,392L-14,259Z" fill="#d4d8eb" stroke="#d4d8eb" stroke-width="1.51"/><path d="M-58,530L-182,563L-43,655Z" fill="#afc8e1" stroke="#afc8e1" stroke-width="1.51"/><path d="M-182,563L-200,722L-43,655Z" fill="#abc5df" stroke="#abc5df" stroke-width="1.51"/><path d="M-155,392L-182,563L-58,530Z" fill="#bacee5" stroke="#bacee5" stroke-width="1.51"/><path d="M-213,82L-197,199L-45,128Z" fill="#e3e0ef" stroke="#e3e0ef" stroke-width="1.51"/><path d="M-169,-260L-218,-9L-67,-158Z" fill="#f5ecf5" stroke="#f5ecf5" stroke-width="1.51"/><path d="M-216,997L-200,1245L-114,1105Z" fill="#8db0ab" stroke="#8db0ab" stroke-width="1.51"/><path d="M-200,722L-216,997L-118,875Z" fill="#9abccc" stroke="#9abccc" stroke-width="1.51"/><path d="M-197,199L-182,563L-155,392Z" fill="#cad5e9" stroke="#cad5e9" stroke-width="1.51"/><path d="M-197,199L-200,722L-182,563Z" fill="#bcd0e6" stroke="#bcd0e6" stroke-width="1.51"/><path d="M-213,82L-216,997L-200,722Z" fill="#b1cbe3" stroke="#b1cbe3" stroke-width="1.51"/><path d="M-213,82L-200,722L-197,199Z" fill="#d2d8ea" stroke="#d2d8ea" stroke-width="1.51"/><path d="M-218,-9L-216,997L-213,82Z" fill="#cfd8ea" stroke="#cfd8ea" stroke-width="1.51"/></svg>